<svg id="Layer_1" data-name="Layer 1" xmlns="http://www.w3.org/2000/svg" viewBox="0 0 512 512"><defs><style>.cls-1{fill:#fdbd06;}.cls-2{fill:#424242;}.cls-3{fill:#fff;}</style></defs><path class="cls-1" d="M256.8,505.87c-32.13.44-63.31-1.46-93.92-9-25.46-6.24-49.3-16-69.63-33.1C73.87,447.54,61.4,427,55.2,402.54c-1.28-5-2.86-8.13-8.81-10.14-22.86-7.74-35.72-24.15-37.28-48.53a359.17,359.17,0,0,1,2.8-75.23c4.44-30.36,26.63-45.79,52-49.35,7.08-1,10.57-3.71,13.91-9.85,25.09-46.14,60.79-81.24,110.27-100.22,64.18-24.62,124.53-15.09,180.32,24.14,29.56,20.77,51.83,48.13,68.3,80.21,1.6,3.13,3.28,4.71,6.94,5a66.79,66.79,0,0,1,19.85,4.65c22.71,8.95,34.66,26.16,37.28,49.95a424.82,424.82,0,0,1,2.15,69.34c-1.37,26-16,44.26-41.24,51.32-2.13.6-3.05,1.46-3.48,3.44-10.12,46.57-40,75.23-83.23,91.77-25.26,9.67-51.63,13.87-78.44,15.87C283,505.87,269.56,506.08,256.8,505.87ZM414.07,310.43c-.08-6.32-.28-12.63-1-18.94C405,216,346.69,154.64,269.68,148.72c-40.9-3.15-78.29,6.61-110.27,32.47C112.64,219,93.54,269.11,98.94,328.44c3.6,39.6,35.5,66.57,75.24,65.43,15.28-.44,28.8-5.94,41.77-13.53,18.28-10.69,38-12.43,58.43-8.54,11.7,2.23,21.51,8.69,31.86,14,34.06,17.32,74.63,7,95.53-24.22C412.17,346,414.39,328.53,414.07,310.43ZM255.85,408A24,24,0,1,0,280,432,24.06,24.06,0,0,0,255.85,408Z"/><path class="cls-2" d="M255.82,56.3c-13.57-.06-24.91-11.72-24.79-25.48a25,25,0,0,1,50,.34C280.94,44.86,269.42,56.37,255.82,56.3Z"/><path class="cls-2" d="M414.07,310.43c.32,18.1-1.9,35.56-12.3,51.11-20.9,31.19-61.47,41.54-95.53,24.22-10.35-5.27-20.16-11.73-31.86-14-20.47-3.89-40.15-2.15-58.43,8.54-13,7.59-26.49,13.09-41.77,13.53C134.44,395,102.54,368,98.94,328.44c-5.4-59.33,13.7-109.42,60.47-147.25,32-25.86,69.37-35.62,110.27-32.47,77,5.92,135.3,67.23,143.43,142.77C413.79,297.8,414,304.11,414.07,310.43ZM256,336.49c14.58-.3,26.82-5.48,36.74-15.89,7.17-7.53,7.13-18.59,0-25.55s-17.76-6.72-25.22.2c-8.06,7.48-14.8,7.4-23-.25-7.4-6.88-18.19-6.79-25.16.22A17.62,17.62,0,0,0,219,320,49.9,49.9,0,0,0,256,336.49Zm-50-84.65c0-4.66.13-9.32,0-14-.34-10.08-8.2-17.82-17.88-17.77a18.07,18.07,0,0,0-17.87,17.84c-.22,9.31-.2,18.62,0,27.93a18.1,18.1,0,0,0,18.2,18c9.7-.15,17.31-7.93,17.57-18.09C206.05,261.15,206,256.49,206,251.84Zm135.94.45c0-4.66.1-9.32,0-14-.28-10.34-8.16-18.24-18-18.22s-17.62,7.93-17.76,18.38q-.18,13.47,0,26.94c.13,10.48,7.78,18.39,17.67,18.47s17.91-8,18.13-18.63C342,260.94,341.89,256.62,341.89,252.29Z"/><path class="cls-2" d="M255.85,408A24,24,0,1,1,232,431.83,24,24,0,0,1,255.85,408Z"/><path class="cls-3" d="M256,336.49A49.9,49.9,0,0,1,219,320a17.62,17.62,0,0,1,.34-24.78c7-7,17.76-7.1,25.16-.22,8.22,7.65,15,7.73,23,.25,7.46-6.92,18.26-7,25.22-.2s7.15,18,0,25.55C282.79,331,270.55,336.19,256,336.49Z"/><path class="cls-3" d="M206,251.84c0,4.65.1,9.31,0,14-.26,10.16-7.87,17.94-17.57,18.09a18.1,18.1,0,0,1-18.2-18c-.19-9.31-.21-18.62,0-27.93A18.07,18.07,0,0,1,188,220.1c9.68,0,17.54,7.69,17.88,17.77C206.08,242.52,206,247.18,206,251.84Z"/><path class="cls-3" d="M341.89,252.29c0,4.33.07,8.65,0,13-.22,10.66-8.1,18.72-18.13,18.63s-17.54-8-17.67-18.47q-.16-13.47,0-26.94c.14-10.45,7.88-18.36,17.76-18.38s17.74,7.88,18,18.22C342,243,341.89,247.63,341.89,252.29Z"/></svg>