<svg id="Layer_1" data-name="Layer 1" xmlns="http://www.w3.org/2000/svg" viewBox="0 0 32 32"><defs><style>.cls-1{fill:#fdbd06;}.cls-2{fill:#424242;}.cls-3{fill:#fff;}</style></defs><path class="cls-1" d="M16.05,30.9a22.27,22.27,0,0,1-5.6-.53,10,10,0,0,1-4.15-2A6.9,6.9,0,0,1,4,24.74a.71.71,0,0,0-.52-.61,3.06,3.06,0,0,1-2.23-2.89,21.76,21.76,0,0,1,.17-4.49,3.4,3.4,0,0,1,3.1-2.94,1,1,0,0,0,.83-.59,12.47,12.47,0,0,1,6.58-6A11,11,0,0,1,22.71,8.68a13,13,0,0,1,4.07,4.79.46.46,0,0,0,.42.29,4.06,4.06,0,0,1,1.18.28,3.36,3.36,0,0,1,2.22,3,24.85,24.85,0,0,1,.13,4.14,3.17,3.17,0,0,1-2.46,3.06.23.23,0,0,0-.21.2,7.29,7.29,0,0,1-5,5.47,16.31,16.31,0,0,1-4.68.95C17.62,30.9,16.82,30.91,16.05,30.9Zm9.38-11.66a10.49,10.49,0,0,0-.05-1.12A9.41,9.41,0,0,0,16.82,9.6a8.93,8.93,0,0,0-6.57,1.94,9.55,9.55,0,0,0-3.61,8.78,4.24,4.24,0,0,0,4.49,3.9,5.14,5.14,0,0,0,2.49-.81,4.9,4.9,0,0,1,3.48-.51,7.19,7.19,0,0,1,1.9.84,4.41,4.41,0,0,0,5.7-1.45A5.09,5.09,0,0,0,25.43,19.24ZM16,25.06a1.44,1.44,0,0,0-1.42,1.42A1.42,1.42,0,0,0,16,27.92a1.43,1.43,0,0,0,0-2.86Z"/><path class="cls-2" d="M16,4.09a1.51,1.51,0,0,1-1.48-1.52A1.48,1.48,0,0,1,16,1.1,1.5,1.5,0,0,1,17.5,2.59,1.52,1.52,0,0,1,16,4.09Z"/><path class="cls-2" d="M25.43,19.24a5.09,5.09,0,0,1-.73,3.05A4.41,4.41,0,0,1,19,23.74a7.19,7.19,0,0,0-1.9-.84,4.9,4.9,0,0,0-3.48.51,5.14,5.14,0,0,1-2.49.81,4.24,4.24,0,0,1-4.49-3.9,9.55,9.55,0,0,1,3.61-8.78A8.93,8.93,0,0,1,16.82,9.6a9.41,9.41,0,0,1,8.56,8.52A10.49,10.49,0,0,1,25.43,19.24ZM16,20.8a3,3,0,0,0,2.19-.95,1.07,1.07,0,1,0-1.51-1.51.86.86,0,0,1-1.37,0,1.07,1.07,0,0,0-1.52,1.5A3,3,0,0,0,16,20.8Zm-3-5.05c0-.28,0-.56,0-.83a1.07,1.07,0,0,0-2.13,0c0,.56,0,1.11,0,1.67a1.07,1.07,0,1,0,2.13,0C13,16.31,13,16,13,15.75Zm8.11,0c0-.28,0-.56,0-.84a1.09,1.09,0,0,0-1.08-1.08A1.07,1.07,0,0,0,19,15v1.61a1.07,1.07,0,1,0,2.14,0Z"/><path class="cls-2" d="M16,25.06a1.43,1.43,0,0,1,0,2.86,1.42,1.42,0,0,1-1.44-1.44A1.44,1.44,0,0,1,16,25.06Z"/><path class="cls-3" d="M16,20.8a3,3,0,0,1-2.21-1,1.07,1.07,0,0,1,1.52-1.5.86.86,0,0,0,1.37,0,1.07,1.07,0,1,1,1.51,1.51A3,3,0,0,1,16,20.8Z"/><path class="cls-3" d="M13,15.75c0,.28,0,.56,0,.83a1.07,1.07,0,1,1-2.13,0c0-.56,0-1.11,0-1.67a1.07,1.07,0,0,1,2.13,0C13,15.19,13,15.47,13,15.75Z"/><path class="cls-3" d="M21.13,15.78v.77a1.07,1.07,0,1,1-2.14,0V15a1.07,1.07,0,0,1,1.06-1.09,1.09,1.09,0,0,1,1.08,1.08C21.14,15.22,21.13,15.5,21.13,15.78Z"/></svg>