<svg id="Layer_1" data-name="Layer 1" xmlns="http://www.w3.org/2000/svg" viewBox="0 0 128 128"><defs><style>.cls-1{fill:#fdbd06;}.cls-2{fill:#424242;}.cls-3{fill:#fff;}</style></defs><path class="cls-1" d="M64.22,125a90.39,90.39,0,0,1-22.94-2.19c-6.22-1.52-12-3.91-17-8.08a28.1,28.1,0,0,1-9.3-15,2.9,2.9,0,0,0-2.15-2.48c-5.59-1.89-8.73-5.9-9.11-11.86a88.29,88.29,0,0,1,.68-18.38c1.09-7.41,6.51-11.19,12.7-12a4,4,0,0,0,3.4-2.41c6.13-11.27,14.85-19.85,26.94-24.49,15.68-6,30.42-3.68,44.06,5.9a53,53,0,0,1,16.68,19.6,1.84,1.84,0,0,0,1.7,1.21A15.9,15.9,0,0,1,114.71,56c5.55,2.18,8.47,6.39,9.11,12.2a103.08,103.08,0,0,1,.53,16.94c-.34,6.36-3.91,10.81-10.08,12.54a1,1,0,0,0-.85.84c-2.47,11.38-9.77,18.38-20.33,22.42a67.18,67.18,0,0,1-19.17,3.88C70.64,125,67.34,125.09,64.22,125Zm38.43-47.75c0-1.54-.07-3.08-.24-4.63-2-18.45-16.22-33.43-35-34.88-10-.76-19.13,1.62-26.94,7.94C29,55,24.34,67.2,25.66,81.69c.88,9.68,8.67,16.27,18.38,16a21.17,21.17,0,0,0,10.2-3.31,20,20,0,0,1,14.28-2.08c2.86.54,5.25,2.12,7.78,3.41a18,18,0,0,0,23.34-5.92C102.18,86,102.72,81.71,102.65,77.29ZM64,101.12a5.86,5.86,0,1,0,5.9,5.88A5.88,5.88,0,0,0,64,101.12Z"/><path class="cls-2" d="M64,15.21A6.21,6.21,0,0,1,57.93,9a6.1,6.1,0,0,1,12.2.09A6.22,6.22,0,0,1,64,15.21Z"/><path class="cls-2" d="M102.65,77.29c.07,4.42-.47,8.69-3,12.49A18,18,0,0,1,76.3,95.7c-2.53-1.29-4.92-2.87-7.78-3.41a20,20,0,0,0-14.28,2.08A21.17,21.17,0,0,1,44,97.68c-9.71.28-17.5-6.31-18.38-16C24.34,67.2,29,55,40.43,45.72c7.81-6.32,17-8.7,26.94-7.94,18.82,1.45,33.05,16.43,35,34.88C102.58,74.21,102.63,75.75,102.65,77.29ZM64,83.66a12.26,12.26,0,0,0,9-3.88,4.37,4.37,0,1,0-6.16-6.2c-2,1.83-3.61,1.81-5.62-.06a4.34,4.34,0,0,0-6.15.06,4.3,4.3,0,0,0-.08,6A12.2,12.2,0,0,0,64,83.66ZM51.8,63c0-1.14,0-2.28,0-3.42a4.38,4.38,0,0,0-4.36-4.34,4.43,4.43,0,0,0-4.37,4.36c-.05,2.28-.05,4.55,0,6.83a4.37,4.37,0,1,0,8.74,0C51.83,65.25,51.8,64.11,51.8,63ZM85,63.09c0-1.14,0-2.28,0-3.41a4.45,4.45,0,0,0-4.41-4.46,4.4,4.4,0,0,0-4.34,4.49c0,2.2,0,4.39,0,6.59a4.38,4.38,0,0,0,4.32,4.51A4.45,4.45,0,0,0,85,66.26C85,65.2,85,64.14,85,63.09Z"/><path class="cls-2" d="M64,101.12A5.86,5.86,0,1,1,58.17,107,5.87,5.87,0,0,1,64,101.12Z"/><path class="cls-3" d="M64,83.66a12.2,12.2,0,0,1-9-4,4.3,4.3,0,0,1,.08-6,4.34,4.34,0,0,1,6.15-.06c2,1.87,3.65,1.89,5.62.06A4.37,4.37,0,1,1,73,79.78,12.26,12.26,0,0,1,64,83.66Z"/><path class="cls-3" d="M51.8,63c0,1.13,0,2.27,0,3.41a4.37,4.37,0,1,1-8.74,0c-.05-2.28-.05-4.55,0-6.83a4.43,4.43,0,0,1,4.37-4.36,4.38,4.38,0,0,1,4.36,4.34C51.83,60.7,51.8,61.84,51.8,63Z"/><path class="cls-3" d="M85,63.09c0,1,0,2.11,0,3.17a4.45,4.45,0,0,1-4.43,4.55,4.38,4.38,0,0,1-4.32-4.51c0-2.2,0-4.39,0-6.59a4.4,4.4,0,0,1,4.34-4.49A4.45,4.45,0,0,1,85,59.68C85,60.81,85,62,85,63.09Z"/></svg>