<svg id="Layer_1" data-name="Layer 1" xmlns="http://www.w3.org/2000/svg" viewBox="0 0 64 64"><defs><style>.cls-1{fill:#fdbd06;}.cls-2{fill:#424242;}.cls-3{fill:#fff;}</style></defs><path class="cls-1" d="M32.11,62.81A45.63,45.63,0,0,1,20.53,61.7a20.64,20.64,0,0,1-8.59-4.08,14.21,14.21,0,0,1-4.69-7.55,1.45,1.45,0,0,0-1.08-1.25,6.33,6.33,0,0,1-4.6-6,44.2,44.2,0,0,1,.34-9.27c.55-3.75,3.29-5.65,6.41-6.09A2,2,0,0,0,10,26.26,25.84,25.84,0,0,1,23.64,13.9c7.91-3,15.35-1.86,22.23,3a26.82,26.82,0,0,1,8.42,9.89.94.94,0,0,0,.86.62A8,8,0,0,1,57.6,28a7,7,0,0,1,4.6,6.16,53.06,53.06,0,0,1,.26,8.55A6.55,6.55,0,0,1,57.37,49a.49.49,0,0,0-.42.42C55.7,55.16,52,58.69,46.68,60.73a34,34,0,0,1-9.67,2C35.35,62.81,33.69,62.84,32.11,62.81Zm19.4-24.1c0-.78,0-1.56-.12-2.34A19.45,19.45,0,0,0,33.7,18.77a18.6,18.6,0,0,0-13.6,4C14.34,27.44,12,33.61,12.65,40.93A8.76,8.76,0,0,0,21.92,49a10.76,10.76,0,0,0,5.16-1.67,10,10,0,0,1,7.2-1A15,15,0,0,1,38.21,48,9.11,9.11,0,0,0,50,45,10.58,10.58,0,0,0,51.51,38.71ZM32,50.74a3,3,0,1,0,3,3A3,3,0,0,0,32,50.74Z"/><path class="cls-2" d="M32,7.37a3.12,3.12,0,0,1-3-3.14,3.08,3.08,0,0,1,6.15,0A3.13,3.13,0,0,1,32,7.37Z"/><path class="cls-2" d="M51.51,38.71A10.58,10.58,0,0,1,50,45a9.11,9.11,0,0,1-11.78,3,15,15,0,0,0-3.93-1.72,10,10,0,0,0-7.2,1A10.76,10.76,0,0,1,21.92,49a8.76,8.76,0,0,1-9.27-8.07C12,33.61,14.34,27.44,20.1,22.77a18.6,18.6,0,0,1,13.6-4,19.45,19.45,0,0,1,17.69,17.6C51.47,37.15,51.5,37.93,51.51,38.71ZM32,41.92a6.12,6.12,0,0,0,4.53-2,2.2,2.2,0,1,0-3.11-3.12,1.78,1.78,0,0,1-2.83,0,2.21,2.21,0,0,0-3.11,0,2.18,2.18,0,0,0,0,3.06A6.17,6.17,0,0,0,32,41.92ZM25.84,31.48c0-.57,0-1.15,0-1.72a2.21,2.21,0,0,0-4.41,0c0,1.15,0,2.3,0,3.44a2.21,2.21,0,1,0,4.41,0C25.85,32.63,25.84,32.06,25.84,31.48Zm16.77.06c0-.57,0-1.15,0-1.72a2.21,2.21,0,1,0-4.41,0c0,1.1,0,2.21,0,3.32a2.21,2.21,0,1,0,4.41,0C42.61,32.61,42.61,32.07,42.61,31.54Z"/><path class="cls-2" d="M32,50.74a3,3,0,1,1-2.94,2.94A3,3,0,0,1,32,50.74Z"/><path class="cls-3" d="M32,41.92a6.17,6.17,0,0,1-4.56-2,2.18,2.18,0,0,1,0-3.06,2.21,2.21,0,0,1,3.11,0,1.78,1.78,0,0,0,2.83,0A2.2,2.2,0,1,1,36.54,40,6.12,6.12,0,0,1,32,41.92Z"/><path class="cls-3" d="M25.84,31.48c0,.58,0,1.15,0,1.73a2.21,2.21,0,1,1-4.41,0c0-1.14,0-2.29,0-3.44a2.21,2.21,0,0,1,4.41,0C25.86,30.33,25.84,30.91,25.84,31.48Z"/><path class="cls-3" d="M42.61,31.54c0,.53,0,1.07,0,1.6a2.21,2.21,0,1,1-4.41,0c0-1.11,0-2.22,0-3.32a2.21,2.21,0,1,1,4.41,0C42.62,30.39,42.61,31,42.61,31.54Z"/></svg>